<?xml version="1.0" standalone="no"?>
<!DOCTYPE svg PUBLIC "-//W3C//DTD SVG 20010904//EN"
 "http://www.w3.org/TR/2001/REC-SVG-20010904/DTD/svg10.dtd">
<svg version="1.0" xmlns="http://www.w3.org/2000/svg"
 width="256.000000pt" height="62.000000pt" viewBox="0 0 256.000000 62.000000"
 preserveAspectRatio="xMidYMid meet">

<g transform="translate(0.000000,62.000000) scale(0.100000,-0.100000)"
fill="#000000" stroke="none">
<path d="M699 406 c-2 -2 -3 -52 -1 -110 l3 -106 61 0 c100 0 148 36 148 111
0 37 -24 85 -49 99 -19 9 -153 15 -162 6z m125 -79 c9 -13 5 -22 -17 -44 l-27
-28 0 41 c0 57 19 70 44 31z"/>
<path d="M978 395 c-31 -17 -58 -62 -58 -95 0 -29 26 -76 52 -94 26 -18 96
-21 131 -5 60 27 75 118 29 170 -23 26 -37 32 -78 35 -32 3 -58 -1 -76 -11z
m98 -59 c9 -23 -24 -76 -46 -76 -23 0 -26 20 -9 53 20 37 46 48 55 23z"/>
<path d="M1180 300 l0 -110 35 0 c33 0 35 2 35 35 0 19 2 35 5 35 3 0 29 -16
58 -35 28 -19 57 -35 64 -35 10 0 13 28 13 110 l0 110 -35 0 c-34 0 -35 -1
-35 -40 0 -22 -3 -40 -7 -40 -4 0 -33 18 -64 40 -32 22 -60 40 -63 40 -3 0 -6
-49 -6 -110z"/>
<path d="M1410 376 c0 -30 3 -35 28 -38 26 -3 27 -5 30 -75 l3 -73 39 0 40 0
0 75 0 75 31 0 c28 0 30 2 27 33 l-3 32 -97 3 -98 3 0 -35z"/>
<path d="M1620 396 c0 -19 67 -197 79 -209 5 -5 24 10 49 42 l40 51 38 -51
c30 -41 39 -48 49 -37 11 12 75 191 75 211 0 5 -17 7 -37 5 -32 -3 -38 -7 -45
-35 -5 -18 -12 -33 -16 -33 -4 0 -18 16 -31 36 -27 40 -21 42 -71 -26 l-18
-24 -11 42 c-12 41 -12 42 -56 42 -31 0 -45 -4 -45 -14z"/>
<path d="M2016 305 c-31 -58 -56 -108 -56 -111 0 -9 89 -4 95 6 3 6 19 10 36
10 16 0 29 -4 29 -10 0 -5 25 -10 55 -10 30 0 55 3 54 8 0 4 -26 52 -57 107
-78 136 -84 136 -156 0z m87 -25 c3 -13 0 -23 -9 -27 -21 -8 -26 1 -18 31 7
29 19 27 27 -4z"/>
<path d="M2245 397 c-3 -7 -4 -56 -3 -108 l3 -94 43 -3 43 -3 -3 108 -3 108
-38 3 c-25 2 -39 -1 -42 -11z"/>
<path d="M2340 375 c0 -32 2 -35 30 -35 l30 0 0 -75 0 -75 40 0 40 0 0 75 0
75 30 0 c28 0 30 3 30 35 l0 35 -100 0 -100 0 0 -35z"/>
<path d="M113 393 c-8 -2 -13 -22 -13 -44 l0 -39 96 0 96 0 -49 45 c-38 35
-55 44 -83 44 -19 0 -41 -3 -47 -6z"/>
<path d="M351 362 c24 -22 57 -50 72 -63 l29 -25 -70 -59 c-39 -33 -71 -62
-71 -65 -2 -10 274 2 287 12 16 14 17 209 0 226 -8 8 -56 12 -151 12 l-140 0
44 -38z m199 -67 c27 -32 -23 -82 -55 -55 -15 13 -20 51 -8 63 12 12 50 7 63
-8z"/>
<path d="M100 201 c0 -45 4 -49 51 -55 29 -4 42 2 89 44 l55 49 -97 1 -98 0 0
-39z"/>
</g>
</svg>
